<svg width="359" height="76" viewBox="0 0 359 76" fill="none" xmlns="http://www.w3.org/2000/svg">
<rect x="12.8215" y="10.3005" width="334.639" height="57.6632" fill="#ECE8E1"/>
<line y1="1.86012" x2="153.857" y2="1.86012" stroke="#ECE8E1" stroke-width="2"/>
<line x1="205.143" y1="1.86012" x2="359" y2="1.86012" stroke="#ECE8E1" stroke-width="2"/>
<line x1="205.143" y1="74.4042" x2="359" y2="74.4042" stroke="#ECE8E1" stroke-width="2"/>
<line x1="358" y1="75.4042" x2="358" y2="1.00002" stroke="#ECE8E1" stroke-width="2"/>
<line x1="1.56429" y1="75.4042" x2="1.56429" y2="1.00002" stroke="#ECE8E1" stroke-width="2"/>
<line y1="74.4042" x2="153.857" y2="74.4042" stroke="#ECE8E1" stroke-width="2"/>
<path d="M129.526 40.175C129.526 38.8917 129.759 37.7 130.226 36.6C130.709 35.5 131.351 34.5417 132.151 33.725C132.968 32.9083 133.926 32.275 135.026 31.825C136.126 31.3583 137.309 31.1333 138.576 31.15C139.926 31.1667 141.168 31.4417 142.301 31.975C143.451 32.5083 144.443 33.2417 145.276 34.175C145.326 34.2417 145.343 34.3167 145.326 34.4C145.326 34.4833 145.293 34.55 145.226 34.6L143.251 36.275C143.184 36.325 143.109 36.35 143.026 36.35C142.943 36.3333 142.876 36.2917 142.826 36.225C142.276 35.5917 141.626 35.0917 140.876 34.725C140.126 34.3417 139.318 34.1583 138.451 34.175C137.668 34.1917 136.926 34.3667 136.226 34.7C135.526 35.0167 134.918 35.4583 134.401 36.025C133.884 36.575 133.476 37.2167 133.176 37.95C132.876 38.6833 132.726 39.4667 132.726 40.3C132.726 41.1333 132.884 41.9167 133.201 42.65C133.518 43.3833 133.943 44.025 134.476 44.575C135.009 45.125 135.626 45.5583 136.326 45.875C137.026 46.175 137.776 46.325 138.576 46.325C139.409 46.3083 140.193 46.1167 140.926 45.75C141.659 45.3833 142.293 44.8833 142.826 44.25C142.876 44.1833 142.943 44.15 143.026 44.15C143.109 44.1333 143.184 44.1583 143.251 44.225L145.226 45.9C145.293 45.95 145.326 46.0167 145.326 46.1C145.343 46.1833 145.326 46.2583 145.276 46.325C144.426 47.275 143.418 48.025 142.251 48.575C141.084 49.1083 139.809 49.3667 138.426 49.35C137.176 49.35 136.001 49.1167 134.901 48.65C133.818 48.1667 132.876 47.5167 132.076 46.7C131.276 45.8667 130.651 44.8917 130.201 43.775C129.751 42.6583 129.526 41.4583 129.526 40.175ZM148.446 31.5H151.021C151.237 31.5 151.346 31.6 151.346 31.8V45.825H158.346C158.446 45.825 158.512 45.8667 158.546 45.95C158.596 46.0333 158.596 46.1083 158.546 46.175L156.671 48.6C156.454 48.8667 156.187 49 155.871 49H148.446C148.362 49 148.287 48.975 148.221 48.925C148.171 48.8583 148.146 48.7833 148.146 48.7V31.8C148.146 31.7167 148.171 31.65 148.221 31.6C148.287 31.5333 148.362 31.5 148.446 31.5ZM160.824 31.5H163.399C163.615 31.5 163.724 31.6 163.724 31.8V48.7C163.724 48.9 163.615 49 163.399 49H160.824C160.74 49 160.665 48.975 160.599 48.925C160.549 48.8583 160.524 48.7833 160.524 48.7V31.8C160.524 31.7167 160.549 31.65 160.599 31.6C160.665 31.5333 160.74 31.5 160.824 31.5ZM166.61 40.15C166.61 39.2333 166.735 38.3417 166.985 37.475C167.252 36.6083 167.627 35.8083 168.11 35.075C168.594 34.3417 169.177 33.6917 169.86 33.125C170.544 32.5417 171.319 32.0833 172.185 31.75C173.285 31.3 174.46 31.0833 175.71 31.1C176.96 31.1 178.135 31.35 179.235 31.85C180.335 32.3333 181.294 32.9917 182.11 33.825C182.927 34.6583 183.56 35.6333 184.01 36.75C184.477 37.85 184.702 39.0333 184.685 40.3C184.669 41.3167 184.502 42.2833 184.185 43.2C183.885 44.1 183.46 44.925 182.91 45.675L185.185 48.625C185.235 48.7083 185.235 48.7917 185.185 48.875C185.152 48.9583 185.094 49 185.01 49H181.81C181.477 49 181.202 48.8667 180.985 48.6L180.485 47.925C179.769 48.375 178.994 48.725 178.16 48.975C177.327 49.225 176.452 49.35 175.535 49.35C174.269 49.35 173.085 49.1083 171.985 48.625C170.902 48.1417 169.96 47.4917 169.16 46.675C168.36 45.8417 167.735 44.8667 167.285 43.75C166.835 42.6333 166.61 41.4333 166.61 40.15ZM169.835 40.275C169.835 41.0917 169.994 41.8667 170.31 42.6C170.627 43.3333 171.052 43.975 171.585 44.525C172.119 45.075 172.735 45.5083 173.435 45.825C174.135 46.1417 174.885 46.3 175.685 46.3C176.519 46.2833 177.285 46.1083 177.985 45.775C178.685 45.425 179.285 44.9667 179.785 44.4C180.302 43.8333 180.702 43.1833 180.985 42.45C181.285 41.7167 181.435 40.95 181.435 40.15C181.435 39.3167 181.277 38.5417 180.96 37.825C180.644 37.0917 180.21 36.45 179.66 35.9C179.127 35.35 178.502 34.9167 177.785 34.6C177.085 34.2833 176.344 34.125 175.56 34.125C174.744 34.125 173.985 34.3 173.285 34.65C172.585 34.9833 171.977 35.4417 171.46 36.025C170.944 36.5917 170.535 37.25 170.235 38C169.952 38.7333 169.819 39.4917 169.835 40.275ZM187.85 31.45H190.425C190.508 31.45 190.575 31.4833 190.625 31.55C190.692 31.6 190.725 31.6667 190.725 31.75V42.575C190.725 43.025 190.8 43.4583 190.95 43.875C191.117 44.275 191.333 44.6417 191.6 44.975C191.883 45.2917 192.217 45.55 192.6 45.75C192.983 45.95 193.4 46.075 193.85 46.125C194.367 46.175 194.85 46.1167 195.3 45.95C195.767 45.7833 196.167 45.5417 196.5 45.225C196.85 44.9083 197.125 44.5333 197.325 44.1C197.525 43.65 197.625 43.175 197.625 42.675V31.75C197.625 31.6667 197.658 31.6 197.725 31.55C197.792 31.4833 197.867 31.45 197.95 31.45H200.5C200.583 31.45 200.65 31.4833 200.7 31.55C200.767 31.6 200.8 31.6667 200.8 31.75V42.675C200.8 43.575 200.625 44.425 200.275 45.225C199.942 46.025 199.483 46.725 198.9 47.325C198.317 47.925 197.625 48.4083 196.825 48.775C196.042 49.125 195.2 49.3083 194.3 49.325C193.367 49.3417 192.492 49.175 191.675 48.825C190.858 48.4583 190.142 47.9667 189.525 47.35C188.908 46.7167 188.425 45.9917 188.075 45.175C187.725 44.3417 187.55 43.4583 187.55 42.525V31.75C187.55 31.6667 187.575 31.6 187.625 31.55C187.692 31.4833 187.767 31.45 187.85 31.45ZM204.396 31.8C204.396 31.7167 204.421 31.65 204.471 31.6C204.537 31.5333 204.612 31.5 204.696 31.5H215.496C215.696 31.5 215.796 31.6 215.796 31.8V34.375C215.796 34.575 215.696 34.675 215.496 34.675H207.596V38.675H213.846C214.046 38.675 214.146 38.775 214.146 38.975V41.525C214.146 41.7417 214.046 41.85 213.846 41.85H207.596V45.825H216.271C216.371 45.825 216.437 45.8667 216.471 45.95C216.521 46.0333 216.512 46.1083 216.446 46.175L214.596 48.6C214.379 48.8667 214.104 49 213.771 49H204.696C204.612 49 204.537 48.975 204.471 48.925C204.421 48.8583 204.396 48.7833 204.396 48.7V31.8ZM218.873 48.65V44.975C218.873 44.725 218.948 44.5167 219.098 44.35L226.548 34.625H219.173C219.09 34.625 219.015 34.6 218.948 34.55C218.898 34.4833 218.873 34.4083 218.873 34.325V31.75C218.873 31.6667 218.898 31.6 218.948 31.55C219.015 31.4833 219.09 31.45 219.173 31.45H229.523C229.607 31.45 229.673 31.4833 229.723 31.55C229.79 31.6 229.823 31.6667 229.823 31.75V35.425C229.823 35.6583 229.748 35.8667 229.598 36.05L222.148 45.775H229.523C229.607 45.775 229.673 45.8083 229.723 45.875C229.79 45.925 229.823 45.9917 229.823 46.075V48.65C229.823 48.7333 229.79 48.8083 229.723 48.875C229.673 48.925 229.607 48.95 229.523 48.95H219.173C219.09 48.95 219.015 48.925 218.948 48.875C218.898 48.8083 218.873 48.7333 218.873 48.65Z" fill="black"/>
</svg>
