<svg width="896" height="154" viewBox="0 0 896 154" fill="none" xmlns="http://www.w3.org/2000/svg">
<path d="M4.16 128L21.06 42.98H45.5C53.82 42.98 60.45 44.5833 65.39 47.79C70.4167 50.91 72.93 55.6767 72.93 62.09C72.93 65.6433 72.0633 68.85 70.33 71.71C68.6833 74.57 66.43 76.9967 63.57 78.99C60.7967 80.9833 57.6767 82.4133 54.21 83.28L54.08 83.8C58.6733 84.9267 62.3133 86.8333 65 89.52C67.7733 92.2067 69.16 95.8467 69.16 100.44C69.16 106.94 67.5567 112.227 64.35 116.3C61.1433 120.287 56.81 123.233 51.35 125.14C45.9767 127.047 39.91 128 33.15 128H4.16ZM27.95 78.6H38.35C45.2833 78.6 50.3967 77.3 53.69 74.7C56.9833 72.0133 58.63 68.5467 58.63 64.3C58.63 61.0067 57.33 58.45 54.73 56.63C52.13 54.81 48.1 53.9 42.64 53.9H33.02L27.95 78.6ZM20.28 117.08H33.15C40.17 117.08 45.6733 115.78 49.66 113.18C53.6467 110.58 55.64 106.55 55.64 101.09C55.64 97.19 54.21 94.1133 51.35 91.86C48.5767 89.6067 44.5033 88.48 39.13 88.48H26L20.28 117.08ZM81.3475 128L98.2475 42.98H112.288L95.3875 128H81.3475ZM116.894 128L133.794 42.98H158.234C166.554 42.98 173.184 44.5833 178.124 47.79C183.151 50.91 185.664 55.6767 185.664 62.09C185.664 65.6433 184.798 68.85 183.064 71.71C181.418 74.57 179.164 76.9967 176.304 78.99C173.531 80.9833 170.411 82.4133 166.944 83.28L166.814 83.8C171.408 84.9267 175.048 86.8333 177.734 89.52C180.508 92.2067 181.894 95.8467 181.894 100.44C181.894 106.94 180.291 112.227 177.084 116.3C173.878 120.287 169.544 123.233 164.084 125.14C158.711 127.047 152.644 128 145.884 128H116.894ZM140.684 78.6H151.084C158.018 78.6 163.131 77.3 166.424 74.7C169.718 72.0133 171.364 68.5467 171.364 64.3C171.364 61.0067 170.064 58.45 167.464 56.63C164.864 54.81 160.834 53.9 155.374 53.9H145.754L140.684 78.6ZM133.014 117.08H145.884C152.904 117.08 158.408 115.78 162.394 113.18C166.381 110.58 168.374 106.55 168.374 101.09C168.374 97.19 166.944 94.1133 164.084 91.86C161.311 89.6067 157.238 88.48 151.864 88.48H138.734L133.014 117.08ZM194.082 128L210.982 42.98H225.022L210.462 116.17H244.392L242.052 128H194.082ZM256.67 128L273.57 42.98H287.61L270.71 128H256.67ZM326.277 129.56C316.743 129.56 309.247 126.353 303.787 119.94C298.327 113.527 295.597 104.817 295.597 93.81C295.597 86.79 296.68 80.16 298.847 73.92C301.013 67.5933 304.003 62.0033 307.817 57.15C311.717 52.21 316.223 48.3533 321.337 45.58C326.537 42.8067 332.083 41.42 337.977 41.42C347.597 41.42 355.093 44.6267 360.467 51.04C365.927 57.4533 368.657 66.1633 368.657 77.17C368.657 84.19 367.573 90.8633 365.407 97.19C363.24 103.43 360.207 109.02 356.307 113.96C352.493 118.813 348.03 122.627 342.917 125.4C337.803 128.173 332.257 129.56 326.277 129.56ZM327.057 117.47C330.87 117.47 334.423 116.387 337.717 114.22C341.01 111.967 343.87 108.977 346.297 105.25C348.81 101.523 350.76 97.32 352.147 92.64C353.62 87.96 354.357 83.15 354.357 78.21C354.357 70.67 352.927 64.69 350.067 60.27C347.207 55.7633 342.917 53.51 337.197 53.51C333.47 53.51 329.96 54.6367 326.667 56.89C323.373 59.0567 320.47 62.0033 317.957 65.73C315.443 69.4567 313.493 73.66 312.107 78.34C310.72 83.02 310.027 87.83 310.027 92.77C310.027 100.31 311.413 106.333 314.187 110.84C317.047 115.26 321.337 117.47 327.057 117.47ZM412.137 129.56C401.823 129.56 393.807 126.44 388.087 120.2C382.453 113.873 379.637 105.337 379.637 94.59C379.637 87.57 380.72 80.8533 382.887 74.44C385.14 68.0267 388.303 62.35 392.377 57.41C396.45 52.47 401.26 48.57 406.807 45.71C412.44 42.85 418.68 41.42 425.527 41.42C430.813 41.42 435.32 42.6333 439.047 45.06C442.773 47.4 445.763 50.52 448.017 54.42L438.397 61.83C436.75 59.23 434.843 57.1933 432.677 55.72C430.51 54.2467 427.867 53.51 424.747 53.51C420.153 53.51 415.95 54.68 412.137 57.02C408.41 59.2733 405.16 62.3067 402.387 66.12C399.7 69.9333 397.62 74.2233 396.147 78.99C394.673 83.7567 393.937 88.61 393.937 93.55C393.937 100.57 395.497 106.333 398.617 110.84C401.823 115.347 407.11 117.6 414.477 117.6C416.903 117.6 419.113 117.21 421.107 116.43C423.187 115.65 424.92 114.697 426.307 113.57L430.467 93.55H414.737L416.947 82.11H445.157L437.487 120.85C434.367 123.363 430.64 125.443 426.307 127.09C421.973 128.737 417.25 129.56 412.137 129.56ZM454.336 128L471.236 42.98H496.326C501.786 42.98 506.596 43.6733 510.756 45.06C514.916 46.4467 518.166 48.6567 520.506 51.69C522.932 54.7233 524.146 58.7533 524.146 63.78C524.146 71.6667 521.936 78.0367 517.516 82.89C513.096 87.6567 507.549 90.95 500.876 92.77L514.916 128H499.966L487.616 94.46H475.006L468.376 128H454.336ZM477.346 83.28H488.136C495.329 83.28 500.789 81.6767 504.516 78.47C508.329 75.2633 510.236 71.0167 510.236 65.73C510.236 61.6567 508.806 58.71 505.946 56.89C503.172 55.07 499.056 54.16 493.596 54.16H482.936L477.346 83.28ZM555.139 80.55L548.769 93.42H570.479L569.569 80.55C569.309 76.2167 569.005 71.8833 568.659 67.55C568.399 63.2167 568.182 58.7533 568.009 54.16H567.489C565.409 58.7533 563.372 63.2167 561.379 67.55C559.472 71.7967 557.392 76.13 555.139 80.55ZM516.269 128L561.769 42.98H578.409L587.509 128H572.949L571.259 104.08H543.569L531.739 128H516.269ZM596.777 128L613.677 42.98H639.157C644.617 42.98 649.427 43.7167 653.587 45.19C657.834 46.5767 661.127 48.8733 663.467 52.08C665.894 55.2867 667.107 59.49 667.107 64.69C667.107 72.0567 665.417 78.08 662.037 82.76C658.657 87.3533 654.064 90.7333 648.257 92.9C642.537 95.0667 636.081 96.15 628.887 96.15H617.057L610.817 128H596.777ZM619.397 84.97H630.057C637.511 84.97 643.231 83.4533 647.217 80.42C651.204 77.3 653.197 72.7067 653.197 66.64C653.197 62.3067 651.767 59.1433 648.907 57.15C646.047 55.1567 641.931 54.16 636.557 54.16H625.377L619.397 84.97ZM670.537 128L687.437 42.98H701.477L694.457 77.43H728.127L735.017 42.98H749.057L732.027 128H717.987L725.787 89.65H692.117L684.577 128H670.537ZM753.437 128L770.337 42.98H784.377L767.477 128H753.437ZM788.984 128L805.884 42.98H854.634L852.294 54.81H817.454L812.904 77.69H842.414L840.074 89.52H810.694L805.234 116.17H841.114L838.774 128H788.984Z" fill="#ECE8E1" fill-opacity="0.1"/>
<path d="M71.928 108V66.272H86.2C89.1013 66.272 91.704 66.592 94.008 67.232C96.312 67.8293 98.1467 68.8747 99.512 70.368C100.877 71.8613 101.56 73.952 101.56 76.64C101.56 78.4747 101.069 80.288 100.088 82.08C99.1493 83.8293 97.8267 85.024 96.12 85.664V85.92C98.2533 86.4747 100.024 87.5627 101.432 89.184C102.883 90.7627 103.608 92.9387 103.608 95.712C103.608 98.5707 102.883 100.896 101.432 102.688C99.9813 104.48 98.04 105.824 95.608 106.72C93.176 107.573 90.4453 108 87.416 108H71.928ZM81.336 82.976H85.752C88.056 82.976 89.72 82.528 90.744 81.632C91.8107 80.736 92.344 79.5413 92.344 78.048C92.344 76.4267 91.8107 75.2747 90.744 74.592C89.6773 73.9093 88.0347 73.568 85.816 73.568H81.336V82.976ZM81.336 100.704H86.648C91.8107 100.704 94.392 98.8267 94.392 95.072C94.392 93.2373 93.752 91.936 92.472 91.168C91.192 90.3573 89.2507 89.952 86.648 89.952H81.336V100.704ZM110.678 108V66.272H120.086V108H110.678ZM129.928 108V66.272H144.2C147.101 66.272 149.704 66.592 152.008 67.232C154.312 67.8293 156.147 68.8747 157.512 70.368C158.877 71.8613 159.56 73.952 159.56 76.64C159.56 78.4747 159.069 80.288 158.088 82.08C157.149 83.8293 155.827 85.024 154.12 85.664V85.92C156.253 86.4747 158.024 87.5627 159.432 89.184C160.883 90.7627 161.608 92.9387 161.608 95.712C161.608 98.5707 160.883 100.896 159.432 102.688C157.981 104.48 156.04 105.824 153.608 106.72C151.176 107.573 148.445 108 145.416 108H129.928ZM139.336 82.976H143.752C146.056 82.976 147.72 82.528 148.744 81.632C149.811 80.736 150.344 79.5413 150.344 78.048C150.344 76.4267 149.811 75.2747 148.744 74.592C147.677 73.9093 146.035 73.568 143.816 73.568H139.336V82.976ZM139.336 100.704H144.648C149.811 100.704 152.392 98.8267 152.392 95.072C152.392 93.2373 151.752 91.936 150.472 91.168C149.192 90.3573 147.251 89.952 144.648 89.952H139.336V100.704ZM168.678 108V66.272H178.086V100.064H194.598V108H168.678ZM201.803 108V66.272H211.211V108H201.803ZM238.013 108.768C234.258 108.768 230.952 107.893 228.093 106.144C225.277 104.395 223.058 101.899 221.437 98.656C219.858 95.3707 219.069 91.4667 219.069 86.944C219.069 82.3787 219.858 78.5173 221.437 75.36C223.058 72.16 225.277 69.728 228.093 68.064C230.952 66.3573 234.258 65.504 238.013 65.504C241.768 65.504 245.053 66.3573 247.869 68.064C250.728 69.728 252.946 72.16 254.525 75.36C256.146 78.56 256.957 82.4213 256.957 86.944C256.957 91.4667 256.146 95.3707 254.525 98.656C252.946 101.899 250.728 104.395 247.869 106.144C245.053 107.893 241.768 108.768 238.013 108.768ZM238.013 100.64C240.872 100.64 243.133 99.4027 244.797 96.928C246.461 94.4533 247.293 91.1253 247.293 86.944C247.293 82.7627 246.461 79.4987 244.797 77.152C243.133 74.8053 240.872 73.632 238.013 73.632C235.154 73.632 232.893 74.8053 231.229 77.152C229.565 79.4987 228.733 82.7627 228.733 86.944C228.733 91.1253 229.565 94.4533 231.229 96.928C232.893 99.4027 235.154 100.64 238.013 100.64ZM283.235 108.768C279.438 108.768 275.982 107.957 272.867 106.336C269.795 104.715 267.342 102.325 265.507 99.168C263.715 95.968 262.819 92.0427 262.819 87.392C262.819 82.784 263.736 78.8587 265.571 75.616C267.448 72.3307 269.923 69.8347 272.995 68.128C276.067 66.3787 279.459 65.504 283.171 65.504C286.2 65.504 288.803 66.0587 290.979 67.168C293.155 68.2773 294.926 69.536 296.291 70.944L291.363 76.96C290.296 76.0213 289.166 75.232 287.971 74.592C286.776 73.952 285.283 73.632 283.491 73.632C280.248 73.632 277.603 74.8267 275.555 77.216C273.507 79.6053 272.483 82.8907 272.483 87.072C272.483 91.3387 273.464 94.6667 275.427 97.056C277.39 99.4453 280.312 100.64 284.195 100.64C285.048 100.64 285.88 100.533 286.691 100.32C287.502 100.107 288.163 99.7867 288.675 99.36V92.192H281.763V84.512H296.995V103.712C295.544 105.12 293.603 106.315 291.171 107.296C288.782 108.277 286.136 108.768 283.235 108.768ZM305.616 108V66.272H320.656C323.6 66.272 326.288 66.6773 328.72 67.488C331.152 68.256 333.093 69.5787 334.544 71.456C335.994 73.3333 336.72 75.936 336.72 79.264C336.72 82.336 336.037 84.8747 334.672 86.88C333.349 88.8427 331.557 90.3147 329.296 91.296L338.768 108H328.208L320.208 92.96H315.024V108H305.616ZM315.024 85.472H319.888C322.362 85.472 324.24 84.96 325.52 83.936C326.842 82.8693 327.504 81.312 327.504 79.264C327.504 77.216 326.842 75.7867 325.52 74.976C324.24 74.1653 322.362 73.76 319.888 73.76H315.024V85.472ZM354.158 86.88L353.134 90.72H362.03L361.07 86.88C360.515 84.7893 359.939 82.5707 359.342 80.224C358.787 77.8773 358.232 75.616 357.678 73.44H357.422C356.91 75.6587 356.376 77.9413 355.822 80.288C355.31 82.592 354.755 84.7893 354.158 86.88ZM339.053 108L352.11 66.272H363.438L376.494 108H366.51L363.95 98.08H351.214L348.654 108H339.053ZM381.053 108V66.272H395.389C398.461 66.272 401.234 66.6987 403.709 67.552C406.226 68.3627 408.232 69.7493 409.725 71.712C411.218 73.6747 411.965 76.3413 411.965 79.712C411.965 82.9547 411.218 85.6213 409.725 87.712C408.232 89.8027 406.248 91.36 403.773 92.384C401.298 93.3653 398.589 93.856 395.645 93.856H390.461V108H381.053ZM390.461 86.368H395.069C400.189 86.368 402.749 84.1493 402.749 79.712C402.749 77.536 402.066 76 400.701 75.104C399.336 74.208 397.373 73.76 394.813 73.76H390.461V86.368ZM419.178 108V66.272H428.586V82.336H442.986V66.272H452.458V108H442.986V90.592H428.586V108H419.178ZM462.303 108V66.272H471.711V108H462.303ZM481.553 108V66.272H507.665V74.208H490.961V82.592H505.169V90.464H490.961V100.064H508.305V108H481.553Z" fill="#ECE8E1" fill-opacity="0.9"/>
</svg>
