<svg width="56" height="56" viewBox="0 0 56 56" fill="none" xmlns="http://www.w3.org/2000/svg">
<path d="M13.5893 8.47467L28 22.8853L42.336 8.54934C42.6527 8.21229 43.0341 7.94265 43.4576 7.75661C43.881 7.57057 44.3376 7.47196 44.8 7.46667C45.7901 7.46667 46.7397 7.86001 47.4399 8.56014C48.14 9.26028 48.5333 10.2099 48.5333 11.2C48.542 11.6577 48.4571 12.1124 48.2838 12.5361C48.1105 12.9598 47.8524 13.3436 47.5253 13.664L33.0027 28L47.5253 42.5227C48.1407 43.1246 48.5015 43.9398 48.5333 44.8C48.5333 45.7901 48.14 46.7397 47.4399 47.4399C46.7397 48.14 45.7901 48.5333 44.8 48.5333C44.3242 48.5531 43.8495 48.4737 43.406 48.3001C42.9626 48.1266 42.5601 47.8628 42.224 47.5253L28 33.1147L13.6267 47.488C13.3112 47.8138 12.9344 48.0739 12.5179 48.2534C12.1014 48.4328 11.6535 48.5279 11.2 48.5333C10.2099 48.5333 9.26028 48.14 8.56014 47.4399C7.86 46.7397 7.46667 45.7901 7.46667 44.8C7.45797 44.3423 7.54289 43.8876 7.71623 43.4639C7.88956 43.0402 8.14766 42.6564 8.47467 42.336L22.9973 28L8.47467 13.4773C7.85936 12.8754 7.49855 12.0602 7.46667 11.2C7.46667 10.2099 7.86 9.26028 8.56014 8.56014C9.26028 7.86001 10.2099 7.46667 11.2 7.46667C12.096 7.47787 12.9547 7.84001 13.5893 8.47467Z" fill="#ECE8E1"/>
</svg>
